<?xml version="1.0" encoding="iso-8859-1"?>
<!-- Generator: Adobe Illustrator 19.0.0, SVG Export Plug-In . SVG Version: 6.00 Build 0)  -->
<svg version="1.1" id="Capa_1" xmlns="http://www.w3.org/2000/svg" xmlns:xlink="http://www.w3.org/1999/xlink" x="0px" y="0px"
	 viewBox="0 0 512 512" style="enable-background:new 0 0 512 512;" xml:space="preserve">
<g>
	<g>
		<g>
			<path d="M213.334,409.6v-15.883c0.259-20.209-6.334-39.909-18.704-55.892c-7.255-9.542-17.143-16.754-28.446-20.746
				c-17.97-7.551-34.498-18.156-48.85-31.346c-13.31-10.989-32.237-11.992-46.633-2.471l-18.463-43.083
				c-3.853-9.004-12.247-15.242-21.98-16.334c-9.732-1.092-19.3,3.132-25.052,11.058c-5.752,7.926-6.799,18.333-2.743,27.246
				l33.442,73.571c4.515,9.957,10.792,19.017,18.529,26.742l52.595,52.595c-2.965,3.139-4.62,7.291-4.629,11.609v68.267
				c0.009,9.422,7.645,17.057,17.067,17.067h93.867c9.422-0.009,17.057-7.645,17.067-17.067v-68.267
				C230.391,417.245,222.756,409.61,213.334,409.6z M66.501,350.396c-6.287-6.28-11.389-13.642-15.063-21.733l-33.442-73.571
				c-1.459-3.135-1.191-6.802,0.708-9.692c1.843-2.923,5.069-4.683,8.525-4.65c4.059-0.003,7.727,2.417,9.321,6.15l19.083,44.525
				c5.075,11.874,12.381,22.665,21.521,31.787l38.983,38.983c2.156,2.156,5.297,2.997,8.242,2.208
				c2.945-0.789,5.244-3.089,6.033-6.033c0.789-2.945-0.053-6.086-2.208-8.242l-38.983-38.983
				c-3.917-3.914-7.44-8.205-10.517-12.809c8.188-6.321,19.661-6.133,27.638,0.454c15.953,14.64,34.391,26.316,54.446,34.479
				c8.171,2.971,15.3,8.257,20.517,15.212c9.95,12.957,15.223,28.899,14.963,45.234V409.6h-70.562L66.501,350.396z M119.467,494.933
				v-68.267h93.867l0.012,68.267H119.467z"/>
			<path d="M196.267,452.267h-8.533c-4.713,0-8.533,3.821-8.533,8.533s3.82,8.533,8.533,8.533h8.533c4.713,0,8.533-3.82,8.533-8.533
				S200.98,452.267,196.267,452.267z"/>
			<path d="M506.794,234.909c-5.75-7.925-15.316-12.148-25.046-11.059c-9.73,1.09-18.125,7.324-21.98,16.325l-18.417,42.967
				c-14.443-9.477-33.378-8.425-46.683,2.592c-14.353,13.191-30.882,23.796-48.854,31.346
				c-11.301,3.994-21.187,11.205-28.442,20.746c-12.37,15.982-18.963,35.683-18.704,55.892V409.6
				c-9.422,0.009-17.057,7.645-17.067,17.067v68.267c0.009,9.422,7.645,17.057,17.067,17.067h93.867
				c9.422-0.009,17.057-7.645,17.067-17.067v-68.267c-0.009-4.318-1.664-8.47-4.629-11.609l52.595-52.595
				c7.737-7.725,14.014-16.784,18.529-26.742l33.442-73.571C513.593,253.237,512.544,242.834,506.794,234.909z M392.534,494.933
				h-93.867v-68.267h93.867V494.933z M494.005,255.092l-33.442,73.571c-3.673,8.091-8.776,15.453-15.063,21.733L386.296,409.6
				h-70.562v-15.883c-0.261-16.334,5.013-32.276,14.963-45.233c5.216-6.954,12.344-12.24,20.513-15.212
				c20.057-8.162,38.496-19.838,54.45-34.479c7.973-6.625,19.47-6.846,27.692-0.533c-3.09,4.634-6.631,8.951-10.571,12.887
				l-38.983,38.983c-2.156,2.155-2.997,5.297-2.208,8.242c0.789,2.944,3.089,5.244,6.033,6.033c2.944,0.789,6.086-0.053,8.242-2.208
				l38.983-38.983c9.14-9.122,16.446-19.913,21.521-31.787l19.088-44.529c1.593-3.731,5.26-6.15,9.317-6.146
				c3.448,0.001,6.66,1.754,8.527,4.653S495.431,251.952,494.005,255.092z"/>
			<path d="M315.734,469.333h8.533c4.713,0,8.533-3.82,8.533-8.533s-3.82-8.533-8.533-8.533h-8.533
				c-4.713,0-8.533,3.821-8.533,8.533S311.021,469.333,315.734,469.333z"/>
			<path d="M418.134,162.133C418.018,94.66,376.158,34.301,313.005,10.545c-1.478-1.226-3.333-1.906-5.253-1.926
				C272.004-3.628,233.071-2.8,197.876,10.956c-0.645,0.152-1.269,0.381-1.859,0.682c-47.183,18.671-82.857,58.418-96.34,107.337
				c-13.482,48.919-3.207,101.33,27.748,141.537c0.541,1.19,1.333,2.249,2.322,3.104c8.806,10.882,18.975,20.587,30.257,28.876
				c0.167,0.164,0.247,0.381,0.43,0.534c0.323,0.205,0.661,0.387,1.01,0.544c27.493,19.948,60.589,30.692,94.557,30.698
				c4.326,0,8.575-0.315,12.817-0.649c0.083,0.003,0.159,0.054,0.242,0.054c0.188,0,0.368-0.081,0.556-0.094
				C353.508,316.443,418.009,246.329,418.134,162.133z M309.414,27.385c55.253,21.921,91.565,75.306,91.654,134.749
				c-0.046,8.331-0.81,16.642-2.285,24.842c-2.187-0.614-4.228-1.661-6.002-3.079c-1.579-1.308-3.096-2.758-4.621-4.204
				c-6.863-8.587-17.474-13.298-28.446-12.629c-9.292,1.429-17.449,6.96-22.217,15.062c-5.266,9.728-8.228,20.534-8.658,31.588
				c-0.32,7.611-2.016,15.101-5.004,22.108c-4.406,7.038-10.148,13.146-16.9,17.979c-0.112,0.092-0.271,0.242-0.433,0.396
				c-1.572,1.261-3.754,1.433-5.504,0.433c-2.182-1.173-3.405-3.579-3.067-6.033c2-16.647-2.36-33.435-12.208-47.004
				c-1.758-2.367-3.708-4.683-5.671-7c-5.009-4.488-8.419-10.487-9.712-17.088c0.125-11.242,19.738-19.763,26.279-22.604
				c8.336-3.46,15.396-9.418,20.208-17.054c11.392-19.012,0.517-34.637-8.225-47.192c-2.379-3.417-4.629-6.646-6.421-9.85
				C293.136,63.245,296.026,41.906,309.414,27.385z M139.229,225.351c-2.394,3.988-4.758,8.073-6.846,12.313
				c-21.946-35.655-27.355-79.075-14.826-119.024s41.763-72.505,80.14-89.242c4.129,6.466,4.531,14.633,1.058,21.474
				c-0.846,1.354-1.808,2.633-2.763,3.921c-1.973,2.51-3.717,5.192-5.212,8.013c-7.008,13.912-2.021,29.275,1.983,41.621
				l0.442,1.358c0.96,2.274,1.393,4.735,1.267,7.2c-1.041,1.771-2.421,3.319-4.062,4.554c-7.413,6.817-14.825,13.546-22.238,20.275
				l-0.654,0.608c-6.337,5.202-11.505,11.682-15.167,19.017c-3.342,9.336-4.335,19.352-2.892,29.163
				c0.63,5.515,0.606,11.086-0.071,16.596C147.328,211.121,143.89,218.62,139.229,225.351z M178.019,284.259
				c0.323-0.484,0.668-0.975,0.986-1.455c1.596-2.4,3.188-4.808,4.904-6.958c2.606-3.898,6.831-6.413,11.5-6.846
				c3.466,0.963,6.655,2.733,9.304,5.167c4.001,3.313,8.55,5.901,13.442,7.65c5.449,1.414,11.124,1.73,16.696,0.929
				c2.269-0.253,4.551-0.354,6.833-0.304c0.341,0.013,0.704,0.017,0.608-0.096c0.276,0.243,0.524,0.517,0.738,0.817
				c3.483,5.049,6.268,10.546,8.279,16.341c1.019,2.53,2.092,5.081,3.234,7.622C227.39,306.87,200.862,298.943,178.019,284.259z
				 M273.135,306.094c-2.333-4.161-4.34-8.497-6.001-12.968c-2.566-7.293-6.153-14.185-10.654-20.471
				c-1.622-2.196-3.704-4.012-6.1-5.321c-2.421-1.222-5.085-1.884-7.796-1.938c-3.056-0.08-6.113,0.035-9.154,0.346
				c-3.404,0.532-6.875,0.451-10.25-0.237c-3.006-1.234-5.8-2.933-8.279-5.033c-4.968-4.372-11.047-7.287-17.567-8.425
				c-10.537-0.496-20.597,4.424-26.675,13.046c-2.108,2.633-3.992,5.446-5.867,8.267c-0.212,0.32-0.455,0.614-0.668,0.934
				c-7.215-5.919-13.848-12.515-19.807-19.697c2.089-7.279,5.31-14.184,9.545-20.462c5.792-8.474,9.97-17.943,12.325-27.933
				c0.958-6.893,1.057-13.878,0.296-20.796c-1.136-7.083-0.615-14.332,1.525-21.179c2.932-5.316,6.887-9.999,11.637-13.779
				c7.438-6.754,14.851-13.515,22.242-20.283c3.973-3.104,7.024-7.233,8.825-11.942c1.511-5.904,1.057-12.139-1.292-17.763
				l-0.425-1.304c-3.354-10.338-6.825-21.029-2.967-28.688c1.062-1.93,2.285-3.766,3.654-5.492c1.237-1.663,2.463-3.325,3.687-5.3
				c6.207-11.269,6.403-24.886,0.525-36.33c25.299-7.775,52.266-8.341,77.869-1.634c-14.221,19.795-15.954,45.953-4.469,67.452
				c2.196,3.913,4.787,7.642,7.3,11.246c8.5,12.208,13.042,19.563,7.558,28.721c-3.039,4.551-7.368,8.09-12.433,10.163
				c-9.9,4.3-36.204,15.725-36.45,38.05c0.924,10.806,5.825,20.884,13.754,28.283c1.725,2.038,3.45,4.067,5.021,6.175
				c7.27,10.101,10.456,22.575,8.921,34.925c-1.071,9.351,3.64,18.416,11.908,22.912c3.193,1.753,6.774,2.678,10.417,2.692
				c5.425-0.071,10.652-2.047,14.767-5.583c8.477-6.207,15.605-14.072,20.95-23.117c4.021-8.843,6.327-18.368,6.796-28.071
				c0.231-8.489,2.338-16.822,6.171-24.4c2.094-3.725,5.715-6.344,9.908-7.167c4.979-0.683,8.629,2.483,14.529,8.083
				c1.8,1.708,3.604,3.408,5.517,4.996c3.824,3.084,8.262,5.317,13.018,6.549C378.322,258.954,330.499,299.185,273.135,306.094z"/>
		</g>
	</g>
</g>
<g>
</g>
<g>
</g>
<g>
</g>
<g>
</g>
<g>
</g>
<g>
</g>
<g>
</g>
<g>
</g>
<g>
</g>
<g>
</g>
<g>
</g>
<g>
</g>
<g>
</g>
<g>
</g>
<g>
</g>
</svg>
