<?xml version="1.0" encoding="iso-8859-1"?>
<!-- Generator: Adobe Illustrator 19.0.0, SVG Export Plug-In . SVG Version: 6.00 Build 0)  -->
<svg version="1.1" id="Capa_1" xmlns="http://www.w3.org/2000/svg" xmlns:xlink="http://www.w3.org/1999/xlink" x="0px" y="0px"
	 viewBox="0 0 512.001 512.001" style="enable-background:new 0 0 512.001 512.001;" xml:space="preserve">
<g>
	<g>
		<path d="M493.465,257.407v-23.026c0-15.465-4.971-30.162-13.997-41.384l-3.889-4.835c-5.441-6.764-8.97-15.309-10.205-24.709
			l-11.927-90.731c5.511-1.314,9.626-6.265,9.626-12.172V12.525C463.072,5.607,457.465,0,450.548,0h-81.403
			c-6.918,0-12.524,5.607-12.524,12.525v48.025c0,5.907,4.115,10.859,9.626,12.172l-11.927,90.731
			c-1.236,9.401-4.765,17.946-10.204,24.708l-3.892,4.836c-1.114,1.385-2.166,2.824-3.154,4.309c-1.964,2.954-6.326,2.954-8.29,0
			c-0.988-1.487-2.04-2.926-3.154-4.31l-3.89-4.834c-5.44-6.763-8.968-15.308-10.205-24.709l-2.105-16.01
			c-0.541-4.115-4.321-7.02-8.43-6.471c-4.114,0.54-7.012,4.315-6.471,8.43l2.105,16.01c1.595,12.134,6.226,23.259,13.393,32.17
			l3.89,4.834c6.885,8.563,10.678,19.914,10.678,31.965v22.93H187.416v-22.93c0-12.051,3.792-23.403,10.678-31.965l3.891-4.836
			c7.167-8.912,11.798-20.036,13.393-32.169l12.138-92.337h56.976l3.972,30.205c0.54,4.115,4.312,7.01,8.43,6.471
			c4.114-0.54,7.012-4.315,6.472-8.43l-3.76-28.599c5.511-1.314,9.625-6.265,9.625-12.172V12.525C309.229,5.607,303.622,0,296.705,0
			h-81.402c-6.918,0-12.524,5.607-12.524,12.525v48.025c0,5.907,4.115,10.859,9.626,12.172l-11.927,90.731
			c-1.234,9.4-4.764,17.945-10.204,24.709l-3.891,4.835c-1.114,1.386-2.166,2.824-3.155,4.31c-1.964,2.953-6.326,2.953-8.29,0
			c-0.989-1.487-2.041-2.925-3.155-4.31l-3.889-4.835c-5.441-6.764-8.97-15.309-10.205-24.709L145.76,72.721
			c5.511-1.314,9.626-6.265,9.626-12.172V12.525C155.386,5.607,149.779,0,142.862,0H61.46c-6.918,0-12.525,5.607-12.525,12.525
			v48.025c0,5.907,4.115,10.859,9.626,12.172l-11.927,90.731c-1.236,9.401-4.765,17.946-10.204,24.708l-3.892,4.836
			c-9.025,11.222-13.995,25.92-13.995,41.384v23.026c-10.28,0.961-18.355,9.63-18.355,20.156v107.093v107.093
			c0,11.185,9.068,20.253,20.253,20.253H491.56c11.185,0,20.253-9.068,20.253-20.253V384.655V277.563
			C511.814,267.039,503.742,258.371,493.465,257.407z M217.807,15.029h76.393v43.015h-76.393V15.029z M371.65,15.029h76.393v43.015
			H371.65V15.029z M341.259,234.381c0-12.051,3.792-23.402,10.677-31.964l3.892-4.836c7.166-8.911,11.797-20.035,13.392-32.169
			l12.139-92.337h56.977l12.138,92.337c1.595,12.133,6.226,23.258,13.394,32.169l3.89,4.835
			c6.885,8.562,10.678,19.914,10.678,31.965v22.93H341.259V234.381z M63.965,15.029h76.394v43.015H63.965V15.029z M33.574,234.381
			c0-12.051,3.792-23.402,10.677-31.964l3.892-4.836c7.166-8.911,11.797-20.035,13.392-32.169l12.139-92.337h56.977l12.138,92.337
			c1.595,12.133,6.226,23.258,13.394,32.169l3.89,4.835c6.885,8.562,10.678,19.914,10.678,31.965v22.93H33.574V234.381z
			 M491.561,496.971H20.441c-2.88,0-5.223-2.344-5.223-5.223v-99.578h481.565v99.578h0.001
			C496.784,494.627,494.441,496.971,491.561,496.971z M496.784,377.14H15.219v-99.577c0-2.88,2.344-5.223,5.223-5.223h471.119
			c2.88,0,5.223,2.344,5.223,5.223V377.14z"/>
	</g>
</g>
<g>
	<g>
		<path d="M319.722,286.642H192.28c-15.969,0-28.961,12.992-28.961,28.961v18.274c0,15.969,12.992,28.961,28.961,28.961h27.984
			c4.151,0,7.515-3.364,7.515-7.515c0-4.151-3.364-7.515-7.515-7.515H192.28c-7.682,0-13.931-6.249-13.931-13.931v-18.274
			c0-7.682,6.249-13.931,13.931-13.931h127.44c7.682,0,13.931,6.249,13.931,13.931v18.274c0,7.682-6.249,13.931-13.931,13.931
			h-53.367c-4.151,0-7.515,3.364-7.515,7.515c0,4.151,3.364,7.515,7.515,7.515h53.367c15.969,0,28.961-12.992,28.961-28.961v-18.274
			C348.682,299.634,335.69,286.642,319.722,286.642z"/>
	</g>
</g>
<g>
</g>
<g>
</g>
<g>
</g>
<g>
</g>
<g>
</g>
<g>
</g>
<g>
</g>
<g>
</g>
<g>
</g>
<g>
</g>
<g>
</g>
<g>
</g>
<g>
</g>
<g>
</g>
<g>
</g>
</svg>
