<?xml version="1.0" encoding="iso-8859-1"?>
<!-- Generator: Adobe Illustrator 19.0.0, SVG Export Plug-In . SVG Version: 6.00 Build 0)  -->
<svg version="1.1" id="Capa_1" xmlns="http://www.w3.org/2000/svg" xmlns:xlink="http://www.w3.org/1999/xlink" x="0px" y="0px"
	 viewBox="0 0 354.315 354.315" style="enable-background:new 0 0 354.315 354.315;" xml:space="preserve">
<g>
	<g>
		<path d="M352.575,91.503c-1.796-2.257-4.669-3.372-7.518-2.919c-39.413,7.964-74.2,30.907-97.04,64
			c-6.96-27.44-19.68-82.48-18.56-116.32c0.862-4.374-1.986-8.618-6.36-9.48c-4.374-0.862-8.618,1.986-9.48,6.36
			c-12.115,36.949-22.341,74.491-30.64,112.48c-2.024-38.388-1.597-76.866,1.28-115.2c0.556-4.383-2.547-8.387-6.93-8.943
			c-2.304-0.292-4.621,0.431-6.35,1.983c-11.639,11.14-21.059,24.388-27.76,39.04c-2.67-15.097-6.494-29.968-11.44-44.48
			c-0.998-2.633-3.308-4.547-6.08-5.04c-2.757-0.509-5.58,0.462-7.44,2.56c-26,29.6-37.2,107.6-41.44,150.72
			c-14.686-26.678-38.021-47.558-66.16-59.2c-4.167-1.467-8.735,0.721-10.203,4.889c-0.772,2.193-0.552,4.613,0.603,6.631
			c0.64,1.12,62.4,107.28,54,206.88h-31.6c-4.418,0-8,3.582-8,8s3.582,8,8,8h274.08c4.418,0,8-3.582,8-8s-3.582-8-8-8h-28
			c-10.72-149.04,80.8-222,81.76-222.72C354.754,99.993,355.326,94.96,352.575,91.503z M70.817,325.464
			c6.08-76.24-25.28-153.6-43.68-191.36c65.44,46.72,69.92,160.96,69.92,191.36H70.817z M131.297,325.464L131.297,325.464l-18.24,0
			c0.578-44.64-6.958-89.013-22.24-130.96c0.96-15.52,8-110.64,30.88-155.12C130.737,75.224,149.057,171.464,131.297,325.464z
			 M147.297,325.464c9.253-73.457,9.978-147.737,2.16-221.36c0.646-18.064,6.478-35.561,16.8-50.4c-3.12,77.12,7.2,233.12,9.92,272
			L147.297,325.464z M192.257,325.464c-1.12-16-3.76-55.6-6.16-101.6c5.968-49.081,16.057-97.572,30.16-144.96
			c4.78,30.968,11.351,61.632,19.68,91.84c-33.44,59.04-37.44,130.8-37.76,154.8L192.257,325.464z M253.617,325.464h-0.16h-39.28
			c0.48-33.6,8-168,102.96-211.2C288.497,147.944,246.097,217.144,253.617,325.464z"/>
	</g>
</g>
<g>
</g>
<g>
</g>
<g>
</g>
<g>
</g>
<g>
</g>
<g>
</g>
<g>
</g>
<g>
</g>
<g>
</g>
<g>
</g>
<g>
</g>
<g>
</g>
<g>
</g>
<g>
</g>
<g>
</g>
</svg>
