<?xml version="1.0" encoding="utf-8"?>
<!-- Generator: Adobe Illustrator 17.1.0, SVG Export Plug-In . SVG Version: 6.00 Build 0)  -->
<!DOCTYPE svg PUBLIC "-//W3C//DTD SVG 1.1//EN" "http://www.w3.org/Graphics/SVG/1.1/DTD/svg11.dtd">
<svg version="1.1" id="Warstwa_1" xmlns="http://www.w3.org/2000/svg" xmlns:xlink="http://www.w3.org/1999/xlink" x="0px" y="0px"
	 viewBox="72.7 0 814.5 560" enable-background="new 72.7 0 814.5 560" xml:space="preserve">
<title>Asset 3</title>
<g id="Layer_2">
	<g id="Layer_1-2">
		<path d="M123.6,0h712.7c28.1,0,50.9,22.8,50.9,50.9l0,0c0,28.1-22.8,50.9-50.9,50.9H123.6c-28.1,0-50.9-22.8-50.9-50.9l0,0
			C72.7,22.8,95.5,0,123.6,0z"/>
		<path d="M123.6,229.1h712.7c28.1,0,50.9,22.8,50.9,50.9l0,0c0,28.1-22.8,50.9-50.9,50.9H123.6c-28.1,0-50.9-22.8-50.9-50.9l0,0
			C72.7,251.9,95.5,229.1,123.6,229.1z"/>
		<path d="M123.6,458.2h712.7c28.1,0,50.9,22.8,50.9,50.9l0,0c0,28.1-22.8,50.9-50.9,50.9H123.6c-28.1,0-50.9-22.8-50.9-50.9l0,0
			C72.7,481,95.5,458.2,123.6,458.2z"/>
	</g>
</g>
</svg>
