<?xml version="1.0" encoding="utf-8"?>
<!-- Generator: Adobe Illustrator 17.1.0, SVG Export Plug-In . SVG Version: 6.00 Build 0)  -->
<!DOCTYPE svg PUBLIC "-//W3C//DTD SVG 1.1//EN" "http://www.w3.org/Graphics/SVG/1.1/DTD/svg11.dtd">
<svg version="1.1" id="Warstwa_1" xmlns="http://www.w3.org/2000/svg" xmlns:xlink="http://www.w3.org/1999/xlink" x="0px" y="0px"
	 viewBox="198.4 -1.6 563.2 563.2" enable-background="new 198.4 -1.6 563.2 563.2" xml:space="preserve">
<title>Asset 4</title>
<g id="Layer_2">
	<g id="Layer_1-2">
		<path d="M546.6,280L746.1,80.2c19.2-17.5,20.6-47.2,3.2-66.5C731.8-5.5,702-6.9,682.8,10.6c-1.1,1-2.2,2.1-3.3,3.3L480,213.4
			L280.2,13.9c-18.4-18.2-48-18.2-66.4,0c-18.2,18.4-18.2,48,0,66.4L413.4,280L213.9,479.5c-19.3,17.4-20.8,47.2-3.4,66.5
			c17.4,19.3,47.2,20.8,66.5,3.4c1.1-1,2.2-2.1,3.3-3.3L480,346.6l199.5,199.5c18.4,18.4,48.2,18.4,66.6,0s18.4-48.2,0-66.6
			L546.6,280z"/>
	</g>
</g>
</svg>
