<?xml version="1.0" encoding="iso-8859-1"?>
<!-- Generator: Adobe Illustrator 19.0.0, SVG Export Plug-In . SVG Version: 6.00 Build 0)  -->
<svg version="1.1" id="Capa_1" xmlns="http://www.w3.org/2000/svg" xmlns:xlink="http://www.w3.org/1999/xlink" x="0px" y="0px"
	 viewBox="0 0 512.005 512.005" style="enable-background:new 0 0 512.005 512.005;" xml:space="preserve">
<g>
	<g>
		<g>
			<path d="M196.267,426.669c-14.138,0-25.6,11.462-25.6,25.6c0,14.138,11.461,25.6,25.6,25.6s25.6-11.462,25.6-25.6
				C221.851,438.137,210.399,426.684,196.267,426.669z M196.267,460.802c-4.713,0-8.533-3.821-8.533-8.533
				c0-4.713,3.82-8.533,8.533-8.533s8.533,3.821,8.533,8.533C204.794,456.979,200.977,460.796,196.267,460.802z"/>
			<path d="M509.904,436.563c-7.077-26-30.691-44.037-57.637-44.027c-15.608-0.003-30.593,6.126-41.725,17.067h-18.008v-34.133
				c9.422-0.009,17.057-7.645,17.067-17.067v-25.6c-0.037-32.974-26.759-59.696-59.733-59.733h-25.6v-24.67
				c4.036,0.784,7.822,2.535,11.034,5.103c2.149,2.188,5.307,3.055,8.271,2.27c2.965-0.785,5.28-3.1,6.065-6.065
				c0.785-2.965-0.082-6.122-2.27-8.271c-8.748-7.583-20.066-11.531-31.633-11.034c-11.567-0.498-22.885,3.45-31.633,11.034
				c-3.277,3.287-3.298,8.6-0.046,11.913c3.273,3.333,8.608,3.444,12.017,0.25c3.227-2.619,7.049-4.405,11.129-5.198v24.669h-42.667
				c-14.132,0.015-25.585,11.468-25.6,25.6v59.733c0.009,9.422,7.645,17.057,17.067,17.067v34.133h-11.892L33.167,4.594
				c-1.468-2.822-4.385-4.592-7.567-4.592H8.533C3.82,0.002,0,3.823,0,8.536s3.82,8.533,8.533,8.533h11.892l82.649,158.686
				L49.745,282.465c-19.722,39.893-5.641,88.243,32.417,111.308l59.014,35.426c-11.007,26.202-2.012,56.532,21.5,72.497
				s55.021,13.137,75.315-6.76h172.55c19.265,18.84,48.76,22.443,71.993,8.794C505.768,490.08,516.981,462.562,509.904,436.563z
				 M90.946,379.14c-30.447-18.452-41.712-57.132-25.933-89.046l47.799-95.642l105.366,202.302
				c-24.183-9.63-51.819-2.408-68.198,17.823L90.946,379.14z M196.267,494.936c-23.553-0.028-42.639-19.114-42.667-42.667
				c0-23.564,19.102-42.667,42.667-42.667s42.667,19.102,42.667,42.667C238.933,475.833,219.831,494.936,196.267,494.936z
				 M256,298.669c0.006-4.71,3.823-8.527,8.533-8.533h85.333c23.553,0.028,42.639,19.114,42.667,42.667l0.013,25.6H256V298.669z
				 M375.467,375.469v34.133h-102.4v-34.133H375.467z M398.379,477.869H250.155c7.794-16.177,7.794-35.023,0-51.2h148.224
				C390.585,442.846,390.585,461.692,398.379,477.869z M452.267,494.936c-23.564,0-42.667-19.102-42.667-42.667
				c0-23.564,19.102-42.667,42.667-42.667c23.564,0,42.667,19.102,42.667,42.667C494.906,475.822,475.819,494.908,452.267,494.936z"
				/>
			<path d="M452.267,426.669c-14.138,0-25.6,11.462-25.6,25.6c0,14.138,11.462,25.6,25.6,25.6c14.138,0,25.6-11.462,25.6-25.6
				C477.851,438.137,466.399,426.684,452.267,426.669z M452.267,460.802c-4.713,0-8.533-3.821-8.533-8.533
				c0-4.713,3.821-8.533,8.533-8.533c4.713,0,8.533,3.821,8.533,8.533C460.794,456.979,456.977,460.796,452.267,460.802z"/>
		</g>
	</g>
</g>
<g>
</g>
<g>
</g>
<g>
</g>
<g>
</g>
<g>
</g>
<g>
</g>
<g>
</g>
<g>
</g>
<g>
</g>
<g>
</g>
<g>
</g>
<g>
</g>
<g>
</g>
<g>
</g>
<g>
</g>
</svg>
