<?xml version="1.0" encoding="utf-8"?>
<!-- Generator: Adobe Illustrator 17.1.0, SVG Export Plug-In . SVG Version: 6.00 Build 0)  -->
<!DOCTYPE svg PUBLIC "-//W3C//DTD SVG 1.1//EN" "http://www.w3.org/Graphics/SVG/1.1/DTD/svg11.dtd">
<svg version="1.1" id="Warstwa_1" xmlns="http://www.w3.org/2000/svg" xmlns:xlink="http://www.w3.org/1999/xlink" x="0px" y="0px"
	 viewBox="0 0 205 42" enable-background="new 0 0 205 42" xml:space="preserve">
<g>
	<path fill="#FFFFFF" d="M7.3,7.3v19c0,3.5,0.7,5,2.9,5v1.2H0.7v-1.2c2,0,2.5-1.4,2.5-4.8V6.9c0-3.4-0.6-4.8-2.5-4.8V0.9h16.2v1.2
		c-0.5,0.1-1.1,0.5-1.1,1.2c0,0.5,0.2,1,0.3,1.4l0.5,1.2l2.8,6.4l3.5-6.8c0.3-0.6,0.8-1.5,0.8-2.2c0-0.6-0.3-1-0.8-1.2V0.9H38v1.2
		c-2,0-2.6,1.4-2.6,4.8v19.6c0,3.4,0.7,4.8,2.6,4.8v1.2H22.8v-1.2c2,0,2.7-1.4,2.7-4.8V7.3l-9.2,18.9L7.3,7.3z"/>
	<path fill="#FFFFFF" d="M48.4,25.3c-0.3,1-0.9,2.8-0.9,3.9c0,1.5,0.9,2,2.2,2.1v1.2H39.1v-1.2c2.6-0.6,3.6-3.3,4.5-5.5l7.5-19.9
		C51.4,5.3,52,4,52,3.3c0-0.7-0.4-1.1-1.1-1.2V0.9h14v1.2c-0.7,0.1-1.1,0.4-1.1,1.2c0,0.6,4.2,12.8,7.5,22.6c0.7,2,1.4,5.1,4,5.4
		v1.2H58.8v-1.2c1.5-0.1,2.6-1.2,2.6-2.8c0-2.4-2.2-4.8-4-6c-2.2-1.5-4.6-2.3-7.2-2.1L48.4,25.3z M54.7,7.3l-3,9
		c2.4,0,4.8,1,6.7,2.4L54.7,7.3z"/>
	<path fill="#FFFFFF" d="M103.6,10.4l-1,0.1c-1.3-3.5-5.2-6.6-9-6.6c-2.4,0-5.4,1.1-5.3,3.8c0,2.4,3.2,3.1,5,3.6l5.6,1.7
		c4.4,1.3,8,4.5,8,8.5c0,8-6,11.6-15.9,11.6c-2.4,0-4.3-0.3-6.7-0.7c-0.9-0.2-2.3-0.5-3.2-0.5c-1.1,0-1.9,0.4-2.6,1.2l-1.1-13.4
		l1.1-0.1c0.9,5.6,5.5,9.7,11.2,9.7c3.3,0,7-0.8,7-4.8c0-2.6-2.9-3.3-4.9-4l-4.8-1.6c-1.8-0.6-4.1-1.4-5.6-2.6
		c-1.7-1.4-2.8-3.6-2.8-5.8c0-8.6,7.9-10.6,12.1-10.6c4.9,0,7.8,1,8.8,1c1,0,2.3-0.3,3-1.2L103.6,10.4z"/>
	<path fill="#FFFFFF" d="M126.4,26.3c0,3.5,0.7,5,3.8,5v1.2h-17.4v-1.2c3.1,0,3.8-1.6,3.8-5V4.4c-4.5,0.1-7.9,2.5-9,6.9l-1-0.2
		l2.4-10.9c0.3,0.5,1,0.7,1.7,0.8c0.8,0,1.6,0,2.1,0h17.2c1.1,0,3.6,0.2,4.3-0.8l2.2,10.9l-1,0.2c-1.6-4.3-4.3-6.6-9-6.9V26.3z"/>
	<path fill="#FFFFFF" d="M163.1,33.3c-0.4-0.4-0.8-0.6-1.3-0.7c-0.5-0.1-1-0.1-1.5-0.1h-23.8v-1.2c2,0,2.6-1.4,2.6-4.8V6.9
		c0-3.4-0.7-4.8-2.6-4.8V0.9h21.8c1.2,0,3.1,0.2,4-0.8l2.4,11l-1.1,0.3c-1.4-4.7-5.5-7.4-10.3-7.4c-4.7,0-4.4,1.8-4.4,5.6v1.5h1.5
		c3.2,0,6.3,0.3,6.3-3.9l1-0.1l2.1,12.2l-1,0.1c-0.5-1.3-1.3-2.6-2.4-3.6c-1.9-1.7-3.9-1.5-6.3-1.5h-1.3v10.4c0,3.3,0.9,4.5,4.7,4.5
		c6.1,0,10.1-3.7,12.6-8.9l1,0.4L163.1,33.3z"/>
	<path fill="#FFFFFF" d="M170.8,6.9c0-3.4-0.7-4.8-2.6-4.8V0.9h21.6c2,0,4.1,0,5.9,0.8c1.7,0.8,2.8,2.2,2.8,4.1c0,4-3.6,6.6-6.8,8.3
		c3.6,3.4,6.3,8.2,8,13.3c0.5,1.7,1.5,3.9,3.6,3.9v1.2h-16.1v-1.2c1.1,0,2-0.3,2-1.6c0-2.9-4.8-9.8-6.8-12.2l-1.7,0.6v8.4
		c0,3.4,0.7,4.8,2.6,4.8v1.2h-15.1v-1.2c2,0,2.6-1.4,2.6-4.8V6.9z M184.3,4.1c-1,0-2.5,0.2-3.2,0.9c-0.5,0.6-0.4,1.8-0.4,2.5v7.1
		c3.3-0.8,7.7-2.7,7.7-6.8C188.3,5.3,186.7,4.1,184.3,4.1z"/>
</g>
<line fill="#FFFFFF" stroke="#FFFFFF" stroke-width="3" stroke-miterlimit="10" x1="0" y1="40.5" x2="205" y2="40.5"/>
</svg>
