<?xml version="1.0" encoding="iso-8859-1"?>
<!-- Generator: Adobe Illustrator 19.0.0, SVG Export Plug-In . SVG Version: 6.00 Build 0)  -->
<svg version="1.1" id="Capa_1" xmlns="http://www.w3.org/2000/svg" xmlns:xlink="http://www.w3.org/1999/xlink" x="0px" y="0px"
	 viewBox="0 0 480 480" style="enable-background:new 0 0 480 480;" xml:space="preserve">
<g>
	<g>
		<path d="M331.072,127.376L306.864,69.28C314.893,65.218,319.968,56.998,320,48V24c0-13.255-10.745-24-24-24H184
			c-13.255,0-24,10.745-24,24v24c0.032,8.998,5.107,17.218,13.136,21.28l-24.216,58.104C140.367,147.852,135.975,169.817,136,192
			v248c0.026,22.08,17.92,39.974,40,40h128c22.08-0.026,39.974-17.92,40-40V192C344.023,169.814,339.629,147.846,331.072,127.376z
			 M176,24c0-4.418,3.582-8,8-8h112c4.418,0,8,3.582,8,8v24c0,4.418-3.582,8-8,8H184c-4.418,0-8-3.582-8-8V24z M163.688,133.504
			L189.336,72h101.328l25.6,61.536c4.556,11.088,7.779,22.679,9.6,34.528c-11.45-0.283-22.707-3.011-33.016-8
			c-7.137-3.417-14.794-5.618-22.656-6.512c-11.165-0.03-22.237,2.035-32.64,6.088c-8.586,3.384-17.716,5.181-26.944,5.304
			c-6.02-0.903-11.869-2.707-17.352-5.352c-11.131-5.184-23.113-8.299-35.36-9.192C159.495,144.66,161.429,139.018,163.688,133.504z
			 M328,440c0,13.255-10.745,24-24,24H176c-13.255,0-24-10.745-24-24V192c0.044-8.583,0.815-17.147,2.304-25.6
			c11.447,0.281,22.702,3.009,33.008,8c7.134,3.416,14.789,5.617,22.648,6.512c11.16,0.036,22.226-2.027,32.624-6.08
			c8.587-3.401,17.725-5.201,26.96-5.312c6.023,0.902,11.875,2.706,17.36,5.352c11.822,5.569,24.639,8.713,37.696,9.248
			c0.984,0,2.008-0.08,3.008-0.128c0.136,2.664,0.392,5.304,0.392,8V440z"/>
	</g>
</g>
<g>
</g>
<g>
</g>
<g>
</g>
<g>
</g>
<g>
</g>
<g>
</g>
<g>
</g>
<g>
</g>
<g>
</g>
<g>
</g>
<g>
</g>
<g>
</g>
<g>
</g>
<g>
</g>
<g>
</g>
</svg>
